<?xml version="1.0" encoding="UTF-8"?>
<svg width="100" height="100" version="1.1" viewBox="0 0 100 100" xmlns="http://www.w3.org/2000/svg">
 <defs>
  <filter id="filter4822" x="-.25" y="-.25" width="1.5" height="1.5" color-interpolation-filters="sRGB">
   <feFlood flood-color="rgb(0,0,0)" flood-opacity=".53726" result="flood"/>
   <feComposite in="flood" in2="SourceGraphic" operator="in" result="composite1"/>
   <feGaussianBlur in="composite1" result="blur" stdDeviation="0.5"/>
   <feOffset dx="1" dy="0.5" result="offset"/>
   <feComposite in="SourceGraphic" in2="offset" result="composite2"/>
  </filter>
 </defs>
 <g id="cbClubs" transform="matrix(4 0 0 4 -2.9167 -2.9166)">
  <rect transform="matrix(1.5 0 0 1.5 -6.6146 -412.43)" x="9.5675" y="278.2" width="7.3233" height="11.15" rx="1.0725" ry="1.0441" fill="#efefef" filter="url(#filter4822)"/>
  <path d="m13.229 15.539-0.99219 2.9104 1.8852 0.03307z" fill="#2f2f2f"/>
  <path d="m15.577 17.288c1.1739-0.15723 2.4761-1.3447 1.9525-3.3007-0.63437-2.3701-2.6839-1.4971-2.6839-1.4971s1.0983-0.94699 0.73567-2.4899c-0.33425-1.4222-1.2764-1.8888-2.352-1.8706-1.0756-0.018218-2.0177 0.4484-2.352 1.8706-0.36261 1.5429 0.73567 2.4899 0.73567 2.4899s-2.0496-0.87294-2.6839 1.4971c-0.52354 1.956 0.77865 3.1435 1.9525 3.3007 1.1739 0.15723 2.3477-1.7488 2.3477-1.7488s1.1738 1.906 2.3477 1.7488z" fill="#2f2f2f"/>
 </g>
</svg>
