<?xml version="1.0" encoding="UTF-8"?>
<!-- Created with Inkscape (http://www.inkscape.org/) -->
<svg width="30" height="20" version="1.1" viewBox="0 0 30 20" xmlns="http://www.w3.org/2000/svg" xmlns:cc="http://creativecommons.org/ns#" xmlns:dc="http://purl.org/dc/elements/1.1/" xmlns:rdf="http://www.w3.org/1999/02/22-rdf-syntax-ns#">
 <metadata>
  <rdf:RDF>
   <cc:Work rdf:about="">
    <dc:format>image/svg+xml</dc:format>
    <dc:type rdf:resource="http://purl.org/dc/dcmitype/StillImage"/>
    <dc:title/>
   </cc:Work>
  </rdf:RDF>
 </metadata>
 <g id="chip10000" transform="matrix(4 0 0 4 -.875 -1167.4)">
  <path transform="translate(0 9.1667e-6)" d="m1.7289 293.11c-1.237 0.79584-1.237 2.0868 8.4e-6 2.8827 1.237 0.79584 3.2436 0.79584 4.4805 0 1.237-0.79585 1.2354-2.0858-0.00163-2.8816-1.237-0.79585-3.2419-0.7969-4.4789-1e-3zm0.026183 0.0169c-1.1703 2.4397-0.58515 1.2198 0 0z" color="#000000" color-rendering="auto" dominant-baseline="auto" fill="#189ea6" image-rendering="auto" shape-rendering="auto" solid-color="#000000" style="font-feature-settings:normal;font-variant-alternates:normal;font-variant-caps:normal;font-variant-ligatures:normal;font-variant-numeric:normal;font-variant-position:normal;isolation:auto;mix-blend-mode:normal;shape-padding:0;text-decoration-color:#000000;text-decoration-line:none;text-decoration-style:solid;text-indent:0;text-orientation:mixed;text-transform:none;white-space:normal"/>
  <rect transform="translate(0 9.1667e-6)" x=".80097" y="294.14" width="6.3356" height=".43878" ry="0" fill="#189ea6" stroke-width="0"/>
  <circle transform="matrix(.84227 -.53905 .84227 .53905 0 0)" cx="-270.48" cy="275.19" r="2.6576" fill="#1ec9d4" stroke-width="0"/>
  <g fill="#080808">
   <rect transform="matrix(.84227 -.53905 .84227 .53905 0 0)" x="-268.93" y="274.84" width="1.1203" height=".68746" rx="0" ry="0"/>
   <rect transform="matrix(.84227 -.53905 .84227 .53905 0 0)" x="-273.15" y="274.84" width="1.1203" height=".68746" rx="0" ry="0"/>
   <rect transform="matrix(-.84227 -.53905 .84227 -.53905 0 0)" x="-277.86" y="-270.82" width="1.1203" height=".68746" rx="0" ry="0"/>
   <rect transform="matrix(-.84227 -.53905 .84227 -.53905 0 0)" x="-273.64" y="-270.82" width="1.1203" height=".68746" rx="0" ry="0"/>
  </g>
  <g>
   <ellipse transform="matrix(.84227 -.53905 .84227 .53905 0 0)" cx="-270.48" cy="275.19" rx="1.7453" ry="1.803" fill="#e8e8e8" stroke="#080808" stroke-dashoffset="11.56" stroke-width=".22212"/>
   <rect transform="matrix(.82477 .56547 0 1 0 0)" x="1.751" y="294.36" width=".70707" height=".45634" fill="#080808" stroke-width="0"/>
   <rect transform="matrix(-.82477 .56547 0 1 0 0)" x="-7.884" y="299.81" width=".70707" height=".45634" fill="#080808" stroke-width="0"/>
  </g>
  <text x="2.0626469" y="294.63507" fill="#000000" font-family="sans-serif" font-size="1.5875px" letter-spacing="-.18521px" stroke-width=".26458" word-spacing="0px" style="line-height:1.25" xml:space="preserve"><tspan x="2.0626469" y="294.63507" font-size="1.4111px" letter-spacing="-.18521px" stroke-width=".26458">10000</tspan></text>
 </g>
</svg>
